<svg xmlns="http://www.w3.org/2000/svg" width="490" height="100" viewBox="0 575 490 100"><title>justify-content: space-around</title><path xmlns="http://www.w3.org/2000/svg" d="M477.77,636.83a7,7,0,0,1-1.28-1.54c2.34-3.88,4.48-9.47,2.85-13.69-.94-2.44-.73-4.43-.59-7a42.4,42.4,0,0,0-.16-6.29c0-.21,0-.42,0-.63l0,0c-.1-1-.22-2-.37-3a5.73,5.73,0,0,0-.81-2.3,18.55,18.55,0,0,0,1.39-7.32c-.09-3.21-1.67-7.69-5.65-7.71-117.57-.6-235.11-4.82-352.68-4q-50.49.36-100.94,2.15c-7,.27-12.34,6.6-14.67,12.84-1.19,3.21-2.32,11.46,1.52,13.91a21.33,21.33,0,0,0-1.43,7q0,6.92-.1,13.82l-.06,6.91c0,1,0,2,0,3,0-1.15-.08-1-.26.58-.94,4.24-.7,9.58,2.23,13,2.61,3.06,6.71,3.75,10.51,4.11a261.54,261.54,0,0,0,38.68.59A5.18,5.18,0,0,0,60.8,665c54.74,2.74,109.41-2,164.11-3.62,26.62-.77,53.3-.78,79.87,1.26,13.7,1.05,27.24,3,41,2.93s27.54-1.24,41.33-1.37c13.46-.13,26.78-.52,40.22-1.42,12.65-.85,25.19-1.1,37.78.73,6.14.89,11.6-6.38,13.81-11C481.35,647.39,482.53,640.92,477.77,636.83Z" fill="#98C5FE"/><path xmlns="http://www.w3.org/2000/svg" d="M335.63,603.07c.43-2,1.06-4.57,5.82-5.58,1.18-.25,90.73-1.09,96.36.49s6.36,7.07,6.22,9.4c-.09,1.51.18,33-.16,36-.16,1.36-.22,4.22-2.27,5.37-3.74,2.1-99.11,1.72-101.18.79s-4.23-5.11-4.45-7.59S335.2,605.06,335.63,603.07Z" fill="#f28c48"/><path xmlns="http://www.w3.org/2000/svg" d="M203.91,646.67c.21,1,3.09,3.32,5.34,3.84.56.13,55.93,1.43,58.48-.39,3.33-2.38,3.12-8,3.08-8.78,0,0,.16-37.66,0-39.22-.07-.7-2.61-3.65-3.58-4.24-1.76-1.08-50.41-.58-55.06-.77-7.5-.3-8.17,3.84-8.28,5.11S203.71,645.65,203.91,646.67Z" fill="#f28c48"/><path xmlns="http://www.w3.org/2000/svg" d="M137.51,601.93a6.71,6.71,0,0,0-4.14-4.37c-4.31-1.36-83.18-1.44-90.92-.52-3.9.46-3.07,6.41-3,7.19l-.69,38.15c.19,1.57,2.55,6.82,3.69,7.41,2.09,1.08,85,1.66,90.85.68,4.73-.78,3.65-2.85,3.77-4.13S137.75,603,137.51,601.93Z" fill="#f28c48"/></svg>