<svg xmlns="http://www.w3.org/2000/svg" width="490" height="100" viewBox="0 715 490 100"><title>justify-content: space-evenly</title><path xmlns="http://www.w3.org/2000/svg" d="M479.32,773.07c4.51-7.56,5.64-17.81-2-18.89a27,27,0,0,0,2.43-7.23c.7-3.77.26-9-3.82-10.55.22-.61.42-1.21.57-1.8,1-3.66,1.57-13.28-4.85-12.83-30.1,2.09-60.21,4.18-90.38,5q-8,.21-16,.26c-21-1.27-42-2.72-62.79-2.2-2.59.06-5.18.16-7.76.25l-1.82-.1c-29.39-1.73-58.77-3.9-88.22-4a669.59,669.59,0,0,0-71.08,3.73l-2.79-.19c-31.71-2.22-63.38-3.65-95.1-1h-.12l-2.61.22a7.21,7.21,0,0,0-1.58.35q-5.82-.76-11.61-1.74c-10.36-1.76-21.51,20.56-13.3,26.27-5.63,7.21-8.23,18.56.66,21.23.84.25,1.69.48,2.54.7l-.09.1c-5.59,6.75-9.56,20.24.57,24.91,6.62,3.05,15.52,3.2,22.66,4.15a438.43,438.43,0,0,0,44.19,3.48c41.84,1.28,83.5-2.41,125.17-5.83a5.86,5.86,0,0,0,1.81.4c70,3.91,140.44,7.51,210.17-2,17.4,1.11,34.8,2.42,52.18,3.81,6.28.5,11.45-6.07,13.81-11C482.2,784.34,484.3,776.23,479.32,773.07Zm-13.21-33.72H466a4.61,4.61,0,0,1,1.7-1.21A18.64,18.64,0,0,0,466.11,739.35Z" fill="#98C5FE"/><path xmlns="http://www.w3.org/2000/svg" d="M319.34,739.83c.71-1.9,1.17-4.5,5.94-5.51,1.18-.25,95.42-1.33,99.11.85s4,8.14,3.85,10.47c-.09,1.51,1.18,30,.83,33-.15,1.36-1.76,8.31-4.1,8.55-2.55.27-98.76.49-100.84-.44s-4.73-5.56-4.95-8S318.31,742.6,319.34,739.83Z" fill="#f28c48"/><path xmlns="http://www.w3.org/2000/svg" d="M206,783.64c.77,2.83,3.32,3.24,5.58,3.76.55.13,55.2.63,55.2.63,3.82-.06,5-6,5.45-6.49,1.17-1.11.06-40.68-.1-42.24-.07-.7-5.68-4.45-6.65-5-1.76-1.08-46.5.16-50.22-.12-6.82-.51-9.49,4.07-9.6,5.34S205.69,782.63,206,783.64Z" fill="#f28c48"/><path xmlns="http://www.w3.org/2000/svg" d="M158.34,739.42c-1-3-5.18-5.11-7.84-5.63-.66-.13-84.21-.36-85.83,0-1.24.28-3.14,2.12-3.72,2.58-1.38,1.11-1.44,42.77-1.44,42.77,0,3.88,5.28,7.22,6.42,7.81,2.09,1.08,88.63.52,89.91.18,3-.81,3.92-4.11,4-5.39S158.65,740.42,158.34,739.42Z" fill="#f28c48"/></svg>