<svg xmlns="http://www.w3.org/2000/svg" width="490" height="110" viewBox="0 430 490 110"><title>justify-content: space-between</title><path xmlns="http://www.w3.org/2000/svg" d="M481.51,497.41c.26.36-1.24-1.94-1.56-2.56a.69.69,0,0,1,.05-.13c1.38-3.22,2-8.68-.05-12a19.46,19.46,0,0,0,1.71-8.06c-.09-3-1.41-5.77-3.7-7,2.3-4.71,3.32-10,1.89-14.78-1.86-6.22-7.92-8.71-13.91-9-15.38-.87-31.16.33-46.58.46q-94.08.76-188.15.14c-69.92-.37-139.84-1.1-209.76-1.83-7-.07-12.43,6.82-14.67,12.84-1.33,3.55-2.41,11.87,2,14.07a29,29,0,0,0-2.34,5.09c-2.39,7-1.24,13.6,3.57,18.6-5.3,4.7-8.85,12.49-6.63,18.53,4.59,12.49,20.78,14.41,32.51,14.38,15.66,0,31.33-.64,47-1,30.87-.64,61.75-1.39,92.63-1.79s61.8-.27,92.69.81c31.5,1.1,62.89,2.24,94.4.54,34.8-1.88,69.65-5.38,104.49-2.26C476.93,523.35,487.51,505.55,481.51,497.41Zm-1.58-2.59c-.06-.14-.06-.17.05-.06Z" fill="#98C5FE"/><path xmlns="http://www.w3.org/2000/svg" d="M366.46,457.21c8.48-3.31,80-.75,88-.62,3.48.06,13.33,1.23,14.35,2.12,2.48,2.16,2.86,5.57,2.73,7.9-.09,1.51,1.17,33,.83,36-.16,1.36-1.06,4.29-3.11,5.44-3.74,2.1-99,1.63-101,.71s-4.55-5.1-4.77-7.58S361.92,459,366.46,457.21Z" fill="#f28c48"/><path xmlns="http://www.w3.org/2000/svg" d="M207.73,506.1c.2,1,3.08,3.12,5.33,3.64.56.13,56.51.92,59.26-.4,3.3-1.58,3.34-8,3.3-8.77,0,0-1.73-38.29-1.89-39.86-.07-.7-1.12-3.08-2.09-3.67-1.76-1.08-53.48-.49-57.21-.77-6.81-.51-6.62,3.9-6.73,5.18S207.53,505.08,207.73,506.1Z" fill="#f28c48"/><path xmlns="http://www.w3.org/2000/svg" d="M112.31,460.15a6.45,6.45,0,0,0-4.64-3.87c-.66-.13-87.59-.24-89.2.11a16.79,16.79,0,0,0-4.33,2.47C12.76,460,13,501.61,13,501.61c.19,1.57,2.51,7.21,3.65,7.8,2.09,1.07,92,.67,93.07-.05,1.64-1.1,1.84-6.3,2-7.55C111.72,501.81,112.55,461.17,112.31,460.15Z" fill="#f28c48"/></svg>